<svg xmlns="http://www.w3.org/2000/svg" viewBox="0 0 256 256" role="img" aria-label="Female default avatar">
  <defs>
    <linearGradient id="bgFemale" x1="0" y1="0" x2="1" y2="1">
      <stop offset="0" stop-color="#e3e3e3" />
      <stop offset="1" stop-color="#c8c8c8" />
    </linearGradient>
  </defs>
  <rect width="256" height="256" fill="#f2f2f2" />
  <circle cx="128" cy="128" r="96" fill="url(#bgFemale)" />
  <path d="M66 126c0-44 28-70 62-70 35 0 62 26 62 70 0 36-22 52-22 52V130c0-26-17-44-40-44-22 0-40 18-40 44v48s-22-16-22-52z" fill="#a7a7a7" />
  <ellipse cx="128" cy="116" rx="34" ry="38" fill="#d9d9d9" />
  <path d="M84 190c8-30 24-48 44-48s36 18 44 48" fill="#b3b3b3" />
</svg>
