<?xml version="1.0" encoding="UTF-8"?>
<svg id="Layer_1" xmlns="http://www.w3.org/2000/svg" version="1.1" viewBox="0 0 522 259">
  <!-- Generator: Adobe Illustrator 30.2.1, SVG Export Plug-In . SVG Version: 2.1.1 Build 1)  -->
  <defs>
    <style>
      .st0 {
        fill: #c63750;
      }
    </style>
  </defs>
  <path class="st0" d="M442.47,22.97c3.68,1.07,7.51,1.14,11.35,2.04,19.26,4.53,34.44,16.57,45.29,32.73l-11.7,4.24c-28.3-43.77-97.11-32.16-108.88,19.06-1.03,4.47-2.89,12.35-.76,16.06h131.3c-1.8,47.97-48.6,80.87-94.77,65.95-23.81-7.69-43.55-29.72-47.63-54.48h-12.25l19.91,57.32h-12.25l-20.66-56.95-36.03-.02-21.02,56.97h-11.87l50.92-141.39,26.02,71.85,15.27.77c.57-13.06,3.04-25.75,9.5-37.21,11.54-20.51,33.85-35.11,57.55-36.94h10.72,0ZM337.58,97.11l-13.79-38.21-13.77,38.21h27.56ZM495.3,108.58h-116.38c5.72,30.38,37.39,50.7,67.67,45.77,23.31-3.8,44.64-22.14,48.71-45.77Z"/>
  <path class="st0" d="M160.72,22.97l.43,142.21-142.07-.05V22.97h141.64ZM50.09,35.2h-19.52v62.67l65.07-40.89-45.55-21.78h0ZM86.46,35.2h-28.33l37.13,17.59s-8.8-17.59-8.8-17.59ZM130.1,35.2h-39.81c2.7,6.66,6.48,13.01,10.33,19.09l29.48-19.09ZM149.24,35.2h-12.63l-34.69,22.54,47.32,86.76V35.21h0ZM149.24,153.67l-50.52-93.24-66.62,93.24h117.14ZM30.57,102.84v46.24l62.02-85.59-59.2,36.81-2.82,2.54Z"/>
  <polygon class="st0" points="189.05 24.89 297 23.74 292.79 35.97 249.54 35.97 249.54 164.75 248.39 165.9 237.29 165.9 237.29 35.97 189.05 35.97 189.05 24.89"/>
  <path class="st0" d="M410.12,202.76c33.12-5.57,33.4,42.14,2.89,39.55-23.18-1.97-23.75-36.04-2.89-39.55h0ZM414.72,209.65c-15.17.85-15.51,26.77,2.11,25.03,14.62-1.45,12.84-25.87-2.11-25.03h0Z"/>
  <path class="st0" d="M248,241.56v-38.21h18.76c.52,0,4.16,1.47,5.02,1.87,12.65,5.91,13.16,26.47,1.27,33.44-1.43.84-7.25,2.9-8.58,2.9h-16.47ZM256.43,210.23v23.31c0,2.21,9.47.17,11.03-.46,3.48-1.4,4.74-4.41,5.09-7.91,1.23-12.48-4.36-15.64-16.12-14.94Z"/>
  <path class="st0" d="M357.11,220.93c1.99.62.62,6.93.17,8.58-5.66,21.07-39.6,15.56-37.34-9.76,1.6-17.91,25.18-23.36,36-9.9l-5.61,4.12c-11.18-11.46-27.27.73-20.31,14.89,3.93,8.01,18.77,8.79,19.05-1.05h-9.19c.21-2.31-.84-5.26,1.15-6.88h16.08Z"/>
  <path class="st0" d="M60.43,203.35v15.29h16.08v-15.29h8.42v38.21c-2.74-.34-6.4,1.03-8.42-1.15v-14.9h-16.08v16.05h-8.42v-38.21h8.42Z"/>
  <path class="st0" d="M194.03,203.35c6.94,1.15,12.2,10.43,6.47,15.63-1.07.98-3.29,1.02-3.79,2.7,8.5,1.19,9.75,12.19,3.45,16.83-1.45,1.06-6.93,3.05-8.43,3.05h-13.4v-38.21c4.79.56,11.12-.76,15.7,0h0ZM194.3,211.1c-2.42-.89-4.89-1.93-7.54-1.64v9.17l6.97-1.83.57-5.7h0ZM186.75,234.69c12.44,2.03,11.79-11.5,0-9.94v9.94Z"/>
  <path class="st0" d="M450.13,203.35v22.55c0,1.1,1.39,5.69,2.27,6.7,2.3,2.64,8.66,2.74,11.47.9,1.05-.69,3.11-4.42,3.11-5.31v-24.84h8.42v27.13c0,2.74-3.42,7.89-5.87,9.43-7.8,4.9-23.65,3.34-26.7-6.73-.19-.61-1.12-5.44-1.12-5.76v-24.08h8.42Z"/>
  <path class="st0" d="M381.61,203.35c10.89,1.8,11.03,18.57.36,21.04l9.97,17.16-9.83-.12-9.31-16.69v15.67c-2.02,2.18-5.69.8-8.42,1.15v-38.21c5.25.61,12.22-.83,17.23,0h0ZM372.8,219.4c12.04,1.84,11.62-11.04,0-9.94v9.94Z"/>
  <path class="st0" d="M159.85,203.45l14.65,38.11-9.86-.09-3.66-8.19c-3.13.28-12.21-1.35-13.98,1.09-.93,1.28-1.92,6.74-2.47,7.09l-8.32.1,13.91-38.08,9.72-.03h.01ZM155.36,212.52c-2.02-.22-1.21.03-1.54,1.12-1.33,4.44-2.82,8.87-3.81,13.4h9.19l-3.84-14.52h0Z"/>
  <path class="st0" d="M229.5,203.48l14.67,38.08-9.2-.36-3.42-7.28-13.69-.65-3.52,7.95-8.45.35,13.88-38.11,9.72.03h.01ZM229.63,227.04l-5.35-15.28-4.6,15.28h9.95Z"/>
  <path class="st0" d="M116.32,203.35v6.88h-14.55v7.64h14.55v6.88h-14.55v9.17h13.4c2.1,1.82.86,5.13,1.15,7.64h-22.97v-38.21h22.97Z"/>
  <path class="st0" d="M492.24,227.04v13.38l-1.27,1.03c-.7.22-1.43.1-2.14.16-1.9.16-4.6.38-5.78-1.19v-37.07h15.7c2.23,0,6.5,3.21,7.57,5.43,5.15,10.69-3.11,19.43-14.08,18.26h0ZM492.24,220.16c9.35,1.24,9.45-11.89,0-10.7v10.7Z"/>
  <path class="st0" d="M47.41,203.35v6.88h-9.19v30.19c-1.07,1.79-8.68,1.77-9.1-.06l-.08-30.14h-9.2v-6.87h27.57Z"/>
  <path class="st0" d="M296.24,203.35v38.21c-2.74-.34-6.4,1.03-8.42-1.15v-37.07h8.42Z"/>
</svg>